<mxfile host="Electron" agent="Mozilla/5.0 (Macintosh; Intel Mac OS X 10_15_7) AppleWebKit/537.36 (KHTML, like Gecko) draw.io/26.0.9 Chrome/128.0.6613.186 Electron/32.2.5 Safari/537.36" version="26.0.9">
  <diagram name="第 1 页" id="BbNaA1kMScdrWVp5F06y">
    <mxGraphModel dx="1026" dy="743" grid="1" gridSize="10" guides="1" tooltips="1" connect="1" arrows="1" fold="1" page="1" pageScale="1" pageWidth="827" pageHeight="1169" math="0" shadow="0">
      <root>
        <mxCell id="0" />
        <mxCell id="1" parent="0" />
        <mxCell id="FERRW4Dp-0LpbCX_Ri2v-5" style="edgeStyle=orthogonalEdgeStyle;rounded=0;orthogonalLoop=1;jettySize=auto;html=1;dashed=1;endArrow=none;startFill=0;strokeWidth=3;" parent="1" source="FERRW4Dp-0LpbCX_Ri2v-1" edge="1">
          <mxGeometry relative="1" as="geometry">
            <mxPoint x="130" y="680" as="targetPoint" />
          </mxGeometry>
        </mxCell>
        <mxCell id="FERRW4Dp-0LpbCX_Ri2v-1" value="&lt;font&gt;客户端&lt;/font&gt;" style="rounded=1;whiteSpace=wrap;html=1;fontSize=18;" parent="1" vertex="1">
          <mxGeometry x="70" y="100" width="120" height="60" as="geometry" />
        </mxCell>
        <mxCell id="FERRW4Dp-0LpbCX_Ri2v-2" value="&lt;font&gt;服务器&lt;/font&gt;" style="rounded=1;whiteSpace=wrap;html=1;fontSize=18;" parent="1" vertex="1">
          <mxGeometry x="450" y="100" width="120" height="60" as="geometry" />
        </mxCell>
        <mxCell id="FERRW4Dp-0LpbCX_Ri2v-3" value="预共享阶段" style="text;html=1;align=center;verticalAlign=middle;whiteSpace=wrap;rounded=0;fontSize=16;" parent="1" vertex="1">
          <mxGeometry x="260" y="150" width="120" height="30" as="geometry" />
        </mxCell>
        <mxCell id="FERRW4Dp-0LpbCX_Ri2v-9" value="" style="edgeStyle=orthogonalEdgeStyle;rounded=0;orthogonalLoop=1;jettySize=auto;html=1;strokeWidth=2;endArrow=none;startFill=0;dashed=1;" parent="1" source="FERRW4Dp-0LpbCX_Ri2v-2" target="FERRW4Dp-0LpbCX_Ri2v-8" edge="1">
          <mxGeometry relative="1" as="geometry">
            <mxPoint x="510" y="680" as="targetPoint" />
            <mxPoint x="510" y="160" as="sourcePoint" />
          </mxGeometry>
        </mxCell>
        <mxCell id="FERRW4Dp-0LpbCX_Ri2v-8" value="生成&amp;nbsp;&lt;span style=&quot;background-color: transparent; color: light-dark(rgb(0, 0, 0), rgb(255, 255, 255));&quot;&gt;(pkS, skS)&lt;/span&gt;" style="rounded=1;whiteSpace=wrap;html=1;" parent="1" vertex="1">
          <mxGeometry x="420" y="190" width="180" height="40" as="geometry" />
        </mxCell>
        <mxCell id="FERRW4Dp-0LpbCX_Ri2v-11" value="" style="endArrow=none;dashed=1;html=1;rounded=0;" parent="1" edge="1">
          <mxGeometry width="50" height="50" relative="1" as="geometry">
            <mxPoint x="90" y="270" as="sourcePoint" />
            <mxPoint x="550" y="270" as="targetPoint" />
          </mxGeometry>
        </mxCell>
        <mxCell id="FERRW4Dp-0LpbCX_Ri2v-15" value="" style="endArrow=none;startArrow=classic;html=1;rounded=0;startFill=0;strokeWidth=2;" parent="1" edge="1">
          <mxGeometry width="50" height="50" relative="1" as="geometry">
            <mxPoint x="130" y="250" as="sourcePoint" />
            <mxPoint x="510" y="250" as="targetPoint" />
            <Array as="points">
              <mxPoint x="320" y="250" />
            </Array>
          </mxGeometry>
        </mxCell>
        <mxCell id="FERRW4Dp-0LpbCX_Ri2v-16" value="pkS" style="edgeLabel;html=1;align=center;verticalAlign=bottom;resizable=0;points=[];labelPosition=center;verticalLabelPosition=top;fontSize=13;" parent="FERRW4Dp-0LpbCX_Ri2v-15" vertex="1" connectable="0">
          <mxGeometry x="-0.0359" y="1" relative="1" as="geometry">
            <mxPoint as="offset" />
          </mxGeometry>
        </mxCell>
        <mxCell id="FERRW4Dp-0LpbCX_Ri2v-17" value="阶段 1" style="text;html=1;align=center;verticalAlign=middle;whiteSpace=wrap;rounded=0;fontSize=16;" parent="1" vertex="1">
          <mxGeometry x="260" y="270" width="120" height="30" as="geometry" />
        </mxCell>
        <mxCell id="FERRW4Dp-0LpbCX_Ri2v-18" value="生成&amp;nbsp;&lt;span style=&quot;background-color: transparent; color: light-dark(rgb(0, 0, 0), rgb(255, 255, 255));&quot;&gt;(epkC, eskC)&lt;/span&gt;&lt;div&gt;计算&amp;nbsp;&lt;span style=&quot;background-color: transparent; color: light-dark(rgb(0, 0, 0), rgb(255, 255, 255));&quot;&gt;(C&lt;sub&gt;1&lt;/sub&gt;, K&lt;sub&gt;1&lt;/sub&gt;)&lt;/span&gt;&lt;/div&gt;" style="rounded=1;whiteSpace=wrap;html=1;" parent="1" vertex="1">
          <mxGeometry x="40" y="280" width="180" height="40" as="geometry" />
        </mxCell>
        <mxCell id="FERRW4Dp-0LpbCX_Ri2v-22" value="&lt;font&gt;K&lt;sub&gt;tmp&lt;/sub&gt; = H&lt;sub&gt;1&lt;/sub&gt;(...)&lt;/font&gt;&lt;div&gt;&lt;font&gt;C&lt;sub&gt;payload &lt;/sub&gt;= Enc(K&lt;sub&gt;tmp&lt;/sub&gt;,M&lt;sub&gt;0-RTT&lt;/sub&gt;)&lt;/font&gt;&lt;/div&gt;" style="rounded=1;whiteSpace=wrap;html=1;" parent="1" vertex="1">
          <mxGeometry x="40" y="330" width="180" height="40" as="geometry" />
        </mxCell>
        <mxCell id="FERRW4Dp-0LpbCX_Ri2v-25" value="" style="endArrow=block;startArrow=none;html=1;rounded=0;endFill=0;startFill=0;exitX=0.5;exitY=1;exitDx=0;exitDy=0;verticalAlign=bottom;strokeWidth=2;" parent="1" edge="1">
          <mxGeometry width="50" height="50" relative="1" as="geometry">
            <mxPoint x="130" y="390" as="sourcePoint" />
            <mxPoint x="510" y="390" as="targetPoint" />
            <Array as="points">
              <mxPoint x="320" y="390" />
            </Array>
          </mxGeometry>
        </mxCell>
        <mxCell id="FERRW4Dp-0LpbCX_Ri2v-26" value="epkC, C&lt;sub&gt;1&lt;/sub&gt;, C&lt;sub&gt;payload&lt;/sub&gt;[0RTT&lt;span style=&quot;background-color: light-dark(#ffffff, var(--ge-dark-color, #121212)); color: light-dark(rgb(0, 0, 0), rgb(255, 255, 255));&quot;&gt;]&lt;/span&gt;" style="edgeLabel;html=1;align=center;verticalAlign=bottom;resizable=0;points=[];labelPosition=center;verticalLabelPosition=top;fontSize=13;" parent="FERRW4Dp-0LpbCX_Ri2v-25" vertex="1" connectable="0">
          <mxGeometry x="0.079" relative="1" as="geometry">
            <mxPoint as="offset" />
          </mxGeometry>
        </mxCell>
        <mxCell id="FERRW4Dp-0LpbCX_Ri2v-29" value="" style="edgeStyle=orthogonalEdgeStyle;rounded=0;orthogonalLoop=1;jettySize=auto;html=1;strokeWidth=3;endArrow=none;startFill=0;dashed=1;" parent="1" source="FERRW4Dp-0LpbCX_Ri2v-8" edge="1">
          <mxGeometry relative="1" as="geometry">
            <mxPoint x="510" y="680" as="targetPoint" />
            <mxPoint x="510" y="240" as="sourcePoint" />
          </mxGeometry>
        </mxCell>
        <mxCell id="FERRW4Dp-0LpbCX_Ri2v-28" value="&lt;font&gt;K&lt;sub&gt;1&lt;/sub&gt;&amp;nbsp;= Decaps(skS, C&lt;sub&gt;1&lt;/sub&gt;)&lt;/font&gt;&lt;div&gt;K&lt;sub&gt;tmp&lt;/sub&gt;&amp;nbsp;= H1(...)&lt;br&gt;&lt;div&gt;&lt;font&gt;M&lt;sub&gt;0-RTT&lt;/sub&gt;=&lt;font&gt;Dec(K&lt;sub&gt;tmp,&lt;/sub&gt;C&lt;sub style=&quot;&quot;&gt;payload&lt;/sub&gt;)&lt;/font&gt;&lt;/font&gt;&lt;/div&gt;&lt;/div&gt;" style="rounded=1;whiteSpace=wrap;html=1;" parent="1" vertex="1">
          <mxGeometry x="420" y="410" width="180" height="50" as="geometry" />
        </mxCell>
        <mxCell id="FERRW4Dp-0LpbCX_Ri2v-33" value="" style="endArrow=none;dashed=1;html=1;rounded=0;" parent="1" edge="1">
          <mxGeometry width="50" height="50" relative="1" as="geometry">
            <mxPoint x="90" y="470" as="sourcePoint" />
            <mxPoint x="550" y="470" as="targetPoint" />
          </mxGeometry>
        </mxCell>
        <mxCell id="FERRW4Dp-0LpbCX_Ri2v-34" value="阶段 2" style="text;html=1;align=center;verticalAlign=middle;whiteSpace=wrap;rounded=0;fontSize=16;" parent="1" vertex="1">
          <mxGeometry x="260" y="470" width="120" height="30" as="geometry" />
        </mxCell>
        <mxCell id="FERRW4Dp-0LpbCX_Ri2v-35" value="&lt;div&gt;&lt;font&gt;计算&amp;nbsp;&lt;span style=&quot;background-color: transparent; color: light-dark(rgb(0, 0, 0), rgb(255, 255, 255));&quot;&gt;(C&lt;sub&gt;2&lt;/sub&gt;, K&lt;sub&gt;2&lt;/sub&gt;)&lt;/span&gt;&lt;/font&gt;&lt;/div&gt;" style="rounded=1;whiteSpace=wrap;html=1;" parent="1" vertex="1">
          <mxGeometry x="420" y="480" width="180" height="40" as="geometry" />
        </mxCell>
        <mxCell id="FERRW4Dp-0LpbCX_Ri2v-38" value="" style="endArrow=block;startArrow=none;html=1;rounded=0;endFill=0;startFill=0;labelPosition=center;verticalLabelPosition=top;align=center;verticalAlign=bottom;strokeWidth=2;" parent="1" edge="1">
          <mxGeometry width="50" height="50" relative="1" as="geometry">
            <mxPoint x="510" y="590" as="sourcePoint" />
            <mxPoint x="130" y="590" as="targetPoint" />
          </mxGeometry>
        </mxCell>
        <mxCell id="FERRW4Dp-0LpbCX_Ri2v-39" value="&lt;font style=&quot;font-size: 12px;&quot;&gt;C&lt;sub&gt;2&lt;/sub&gt;, C&#39;&lt;sub&gt;payload&lt;/sub&gt;&lt;/font&gt;" style="edgeLabel;html=1;align=center;verticalAlign=bottom;resizable=0;points=[];labelPosition=center;verticalLabelPosition=top;fontSize=13;" parent="FERRW4Dp-0LpbCX_Ri2v-38" vertex="1" connectable="0">
          <mxGeometry x="0.079" relative="1" as="geometry">
            <mxPoint as="offset" />
          </mxGeometry>
        </mxCell>
        <mxCell id="FERRW4Dp-0LpbCX_Ri2v-40" value="&lt;font&gt;K&lt;sub&gt;main&lt;/sub&gt;&amp;nbsp;= Decaps(eskC, C&lt;sub&gt;2&lt;/sub&gt;)&lt;/font&gt;&lt;div&gt;&lt;font&gt;K&lt;sub&gt;main&lt;/sub&gt;&amp;nbsp;= H&lt;sub&gt;2&lt;/sub&gt;(...)&lt;br&gt;&lt;/font&gt;&lt;div&gt;&lt;font&gt;&lt;font&gt;M&lt;sub&gt;1&lt;/sub&gt;=&lt;/font&gt;&lt;font&gt;&lt;font&gt;Dec(K&lt;sub&gt;main,&lt;/sub&gt;C&#39;&lt;sub style=&quot;&quot;&gt;payload&lt;/sub&gt;)&lt;/font&gt;&lt;br&gt;&lt;/font&gt;&lt;/font&gt;&lt;/div&gt;&lt;/div&gt;" style="rounded=1;whiteSpace=wrap;html=1;" parent="1" vertex="1">
          <mxGeometry x="40" y="610" width="180" height="50" as="geometry" />
        </mxCell>
        <mxCell id="FERRW4Dp-0LpbCX_Ri2v-41" value="阶段 2 结束" style="text;html=1;align=center;verticalAlign=middle;whiteSpace=wrap;rounded=0;fontSize=16;" parent="1" vertex="1">
          <mxGeometry x="260" y="630" width="120" height="30" as="geometry" />
        </mxCell>
        <mxCell id="FERRW4Dp-0LpbCX_Ri2v-44" value="" style="edgeStyle=orthogonalEdgeStyle;rounded=0;orthogonalLoop=1;jettySize=auto;html=1;strokeWidth=2;endArrow=none;startFill=0;dashed=1;" parent="1" target="FERRW4Dp-0LpbCX_Ri2v-37" edge="1">
          <mxGeometry relative="1" as="geometry">
            <mxPoint x="510" y="690" as="targetPoint" />
            <mxPoint x="510" y="530" as="sourcePoint" />
          </mxGeometry>
        </mxCell>
        <mxCell id="FERRW4Dp-0LpbCX_Ri2v-37" value="&lt;font&gt;K&lt;sub&gt;main&lt;/sub&gt;&amp;nbsp;= H&lt;sub&gt;2&lt;/sub&gt;(...)&lt;/font&gt;&lt;div&gt;&lt;font&gt;C&#39;&lt;sub&gt;payload &lt;/sub&gt;= Enc(K&lt;sub&gt;main&lt;/sub&gt;,M&lt;sub&gt;1&lt;/sub&gt;)&lt;/font&gt;&lt;/div&gt;" style="rounded=1;whiteSpace=wrap;html=1;" parent="1" vertex="1">
          <mxGeometry x="420" y="530" width="180" height="40" as="geometry" />
        </mxCell>
      </root>
    </mxGraphModel>
  </diagram>
</mxfile>
